<?xml version="1.0" encoding="UTF-8"?>
<!DOCTYPE svg PUBLIC "-//W3C//DTD SVG 1.1//EN" "http://www.w3.org/Graphics/SVG/1.1/DTD/svg11.dtd">
<svg xmlns="http://www.w3.org/2000/svg" version="1.1" width="564px" height="319px" style="shape-rendering:geometricPrecision; text-rendering:geometricPrecision; image-rendering:optimizeQuality; fill-rule:evenodd; clip-rule:evenodd" xmlns:xlink="http://www.w3.org/1999/xlink">
<g><path style="opacity:1" fill="#2b2a29" d="M 88.5,0.5 C 246.167,0.333334 403.834,0.500001 561.5,1C 561.167,1.33333 560.833,1.66667 560.5,2C 562.495,74.2863 563.162,146.786 562.5,219.5C 510.5,219.5 458.5,219.5 406.5,219.5C 406.5,187.167 406.5,154.833 406.5,122.5C 300.5,122.5 194.5,122.5 88.5,122.5C 88.5,81.8333 88.5,41.1667 88.5,0.5 Z"/></g>
<g><path style="opacity:0.996" fill="#565554" d="M 88.5,0.5 C 88.5,0.166667 88.5,-0.166667 88.5,-0.5C 246.833,-0.5 405.167,-0.5 563.5,-0.5C 563.5,72.8333 563.5,146.167 563.5,219.5C 563.167,219.5 562.833,219.5 562.5,219.5C 563.162,146.786 562.495,74.2863 560.5,2C 560.833,1.66667 561.167,1.33333 561.5,1C 403.834,0.500001 246.167,0.333334 88.5,0.5 Z"/></g>
<g><path style="opacity:0.996" fill="#afca1f" d="M 87.5,-0.5 C 87.8333,-0.5 88.1667,-0.5 88.5,-0.5C 88.5,-0.166667 88.5,0.166667 88.5,0.5C 88.5,41.1667 88.5,81.8333 88.5,122.5C 88.5,154.833 88.5,187.167 88.5,219.5C 194.5,219.5 300.5,219.5 406.5,219.5C 457.332,220.333 508.332,220.833 559.5,221C 558.944,221.383 558.611,221.883 558.5,222.5C 508.228,248.304 457.894,274.137 407.5,300C 278.5,300.5 149.5,300.667 20.5,300.5C 20.3333,240.832 20.5,181.166 21,121.5C 43.4455,80.9392 65.6121,40.2726 87.5,-0.5 Z"/></g>
<g><path style="opacity:1" fill="#6c6c6b" d="M 507.5,46.5 C 479.5,46.5 451.5,46.5 423.5,46.5C 450.902,45.8293 478.402,45.1626 506,44.5C 506.717,45.0442 507.217,45.7109 507.5,46.5 Z"/></g>
<g><path style="opacity:1" fill="#f3f3f3" d="M 423.5,46.5 C 451.5,46.5 479.5,46.5 507.5,46.5C 507.5,68.1667 507.5,89.8333 507.5,111.5C 479.5,111.5 451.5,111.5 423.5,111.5C 423.5,89.8333 423.5,68.1667 423.5,46.5 Z"/></g>
<g><path style="opacity:1" fill="#fdfdfd" d="M 88.5,122.5 C 194.5,122.5 300.5,122.5 406.5,122.5C 406.5,154.833 406.5,187.167 406.5,219.5C 300.5,219.5 194.5,219.5 88.5,219.5C 88.5,187.167 88.5,154.833 88.5,122.5 Z"/></g>
<g><path style="opacity:1" fill="#9db41f" d="M 406.5,219.5 C 458.5,219.5 510.5,219.5 562.5,219.5C 562.833,219.5 563.167,219.5 563.5,219.5C 563.5,219.833 563.5,220.167 563.5,220.5C 561.95,221.441 560.284,222.107 558.5,222.5C 558.611,221.883 558.944,221.383 559.5,221C 508.332,220.833 457.332,220.333 406.5,219.5 Z"/></g>
</svg>
